# xmcd
#
# Track frame offsets:
#	150
#	21901
#	47252
#	79799
#	97954
#	123305
#	143258
#	161409
#	186752
#	208505
#
# Disc length: 3407 seconds
#
# Revision: 1
# Processed by: cddbd v1.5.2PL0 Copyright (c) Steve Scherf et al.
# Submitted via: audiograbber 1.83.01
#
DISCID=700d4d0a
DTITLE=Finest Bar Lounge - Home Edition
DYEAR=2007
DGENRE=Lounge
TTITLE0=Stephie Sancy - Windsong
TTITLE1=Celia Weaver - Drifting
TTITLE2=Tisha Lewie - Into The Green
TTITLE3=Lowna Tyrin - Freedom
TTITLE4=Mavis Lay - Walking Along The Beach
TTITLE5=Arida Boyd - Monnnlight
TTITLE6=Val - Reflections
TTITLE7=Jasmin Mann - Fantasy
TTITLE8=Lorgos Plumm - Daydreams
TTITLE9=Radecca - Asia
EXTD=
EXTT0=
EXTT1=
EXTT2=
EXTT3=
EXTT4=
EXTT5=
EXTT6=
EXTT7=
EXTT8=
EXTT9=
PLAYORDER=
